<?xml version="1.0" standalone="no"?>
<!DOCTYPE svg PUBLIC "-//W3C//DTD SVG 20010904//EN"
 "http://www.w3.org/TR/2001/REC-SVG-20010904/DTD/svg10.dtd">
<svg version="1.0" xmlns="http://www.w3.org/2000/svg"
 width="1280.000000pt" height="1280.000000pt" viewBox="0 0 1280.000000 1280.000000"
 preserveAspectRatio="xMidYMid meet">
<metadata>
Created by potrace 1.11, written by Peter Selinger 2001-2013
</metadata>
<g transform="translate(0.000000,1280.000000) scale(0.100000,-0.100000)"
fill="#000000" stroke="none">
<path d="M3023 10239 l0 -1012 216 7 c119 4 232 9 251 10 19 2 69 7 110 10
241 20 624 95 657 129 9 10 29 92 58 242 6 32 43 265 51 325 3 19 7 46 9 60 2
14 7 52 11 84 3 33 8 67 9 75 2 9 4 30 4 46 l1 30 590 0 c325 0 591 -2 591 -5
1 -3 2 -1224 3 -2714 1 -1799 -2 -2710 -9 -2712 -5 -2 -30 -5 -55 -8 -47 -6
-73 -9 -130 -20 -53 -9 -91 -16 -130 -22 -19 -3 -41 -7 -49 -10 -8 -2 -30 -7
-50 -10 -51 -8 -281 -60 -377 -85 -71 -19 -82 -25 -97 -53 -15 -31 -86 -217
-92 -246 -2 -8 -20 -69 -39 -135 -36 -121 -89 -352 -101 -435 -3 -25 -8 -59
-11 -76 l-5 -31 1950 0 1950 0 8 56 c16 110 8 543 -12 674 -2 12 -7 45 -11 72
-14 94 -33 173 -44 180 -8 5 -125 31 -182 40 -18 3 -44 7 -58 10 -36 7 -91 16
-120 20 -14 2 -38 6 -55 9 -16 2 -50 8 -75 11 -25 3 -56 8 -70 10 -14 3 -45 6
-70 9 -73 8 -153 17 -185 21 -16 3 -70 8 -120 11 -49 3 -96 10 -104 14 -11 6
-13 428 -13 2696 1 1479 1 2698 1 2709 1 20 7 20 580 20 319 0 582 -2 584 -5
6 -6 13 -55 22 -145 8 -88 59 -418 70 -455 3 -8 7 -33 10 -55 4 -22 11 -58 17
-80 10 -39 12 -49 24 -112 3 -18 11 -36 18 -42 10 -8 103 -34 164 -46 13 -2
31 -6 40 -9 21 -6 66 -15 112 -21 19 -3 42 -7 50 -10 25 -7 261 -36 420 -50
19 -2 125 -6 235 -10 110 -3 206 -8 213 -10 9 -4 12 206 12 1025 l0 1030
-3388 0 -3389 0 0 -1011z"/>
</g>
</svg>
