<?xml version="1.0" standalone="no"?>
<!DOCTYPE svg PUBLIC "-//W3C//DTD SVG 20010904//EN"
 "http://www.w3.org/TR/2001/REC-SVG-20010904/DTD/svg10.dtd">
<svg version="1.0" xmlns="http://www.w3.org/2000/svg"
 width="260.000000pt" height="260.000000pt" viewBox="0 0 260.000000 260.000000"
 preserveAspectRatio="xMidYMid meet">
<metadata>
Created by potrace 1.11, written by Peter Selinger 2001-2013
</metadata>
<g transform="translate(0.000000,260.000000) scale(0.100000,-0.100000)"
fill="#000000" stroke="none">
<path d="M476 2211 c-2 -3 -4 -113 -4 -244 l0 -238 87 7 c107 8 118 9 161 18
58 13 56 9 76 156 10 70 1 66 151 65 l138 0 1 -651 c1 -489 -1 -651 -10 -651
-6 0 -54 -8 -105 -18 l-93 -18 -17 -41 c-17 -38 -35 -108 -45 -167 l-4 -26
469 0 469 -1 1 27 c5 101 -1 195 -15 209 -6 6 -141 28 -216 35 l-35 3 0 649 0
649 133 0 c152 1 145 5 158 -89 4 -33 8 -63 10 -67 1 -5 2 -17 3 -28 0 -10 10
-24 20 -30 23 -12 148 -30 232 -34 l59 -2 0 246 0 247 -810 0 c-446 0 -812 -2
-814 -6z"/>
</g>
</svg>
